<?xml version="1.0" standalone="no"?><!DOCTYPE svg PUBLIC "-//W3C//DTD SVG 1.1//EN" "http://www.w3.org/Graphics/SVG/1.1/DTD/svg11.dtd"><svg t="1727963305434" class="icon" viewBox="0 0 1024 1024" version="1.1" xmlns="http://www.w3.org/2000/svg" p-id="5706" xmlns:xlink="http://www.w3.org/1999/xlink" width="200" height="200"><path d="M607.573333 846.506667c-68.266667 0-129.706667-40.96-157.013333-105.813334-3.413333-3.413333-3.413333-10.24 0-13.653333 23.893333-54.613333 81.92-146.773333 157.013333-146.773333 75.093333 0 136.533333 92.16 157.013334 146.773333 3.413333 3.413333 3.413333 10.24 0 13.653333-27.306667 64.853333-88.746667 105.813333-157.013334 105.813334z m-126.293333-112.64c23.893333 47.786667 71.68 78.506667 122.88 78.506666 54.613333 0 102.4-30.72 122.88-78.506666-20.48-51.2-68.266667-119.466667-119.466667-119.466667-54.613333 0-102.4 68.266667-126.293333 119.466667z" p-id="5707"></path><path d="M498.346667 651.946667c-13.653333 0-27.306667-3.413333-40.96-6.826667-54.613333-23.893333-78.506667-85.333333-58.026667-136.533333 3.413333-10.24 13.653333-13.653333 23.893333-10.24l160.426667 68.266666c3.413333 3.413333 6.826667 3.413333 10.24 10.24 3.413333 3.413333 3.413333 10.24 0 13.653334-13.653333 34.133333-51.2 61.44-95.573333 61.44z m-68.266667-116.053334c-3.413333 30.72 13.653333 61.44 40.96 75.093334 30.72 13.653333 64.853333 3.413333 85.333333-23.893334l-126.293333-51.2z" p-id="5708"></path><path d="M515.413333 593.92c-10.24 0-17.066667-6.826667-17.066666-17.066667 0-3.413333 0-6.826667 3.413333-10.24 6.826667-6.826667 20.48-10.24 27.306667-3.413333 3.413333 3.413333 6.826667 6.826667 6.826666 13.653333 0 3.413333-3.413333 10.24-6.826666 13.653334-3.413333 3.413333-6.826667 3.413333-13.653334 3.413333zM720.213333 651.946667c-40.96 0-81.92-23.893333-95.573333-64.853334-3.413333-10.24 0-17.066667 10.24-23.893333l160.426667-68.266667c3.413333-3.413333 10.24-3.413333 13.653333 0 3.413333 3.413333 6.826667 3.413333 10.24 10.24 20.48 54.613333-3.413333 116.053333-58.026667 136.533334-13.653333 6.826667-27.306667 10.24-40.96 10.24z m-58.026666-64.853334c17.066667 23.893333 54.613333 34.133333 85.333333 23.893334 30.72-13.653333 47.786667-44.373333 40.96-75.093334l-126.293333 51.2z" p-id="5709"></path><path d="M703.146667 593.92c-10.24 0-17.066667-6.826667-17.066667-17.066667 0-3.413333 3.413333-10.24 3.413333-13.653333 6.826667-6.826667 23.893333-6.826667 27.306667 3.413333 0 3.413333 3.413333 3.413333 3.413333 6.826667 0 13.653333-10.24 20.48-17.066666 20.48zM529.066667 750.933333h-64.853334c-10.24 0-17.066667-6.826667-17.066666-17.066666s6.826667-17.066667 17.066666-17.066667h58.026667l20.48-17.066667c3.413333-3.413333 6.826667-3.413333 13.653333-3.413333l194.56 20.48c10.24 0 17.066667 10.24 13.653334 20.48 0 10.24-10.24 17.066667-20.48 13.653333l-187.733334-20.48-20.48 17.066667c0 3.413333-3.413333 3.413333-6.826666 3.413333zM218.453333 604.16c-3.413333 0-6.826667 0-10.24-3.413333l-61.44-44.373334c-6.826667-6.826667-10.24-17.066667-3.413333-23.893333 6.826667-6.826667 17.066667-10.24 23.893333-3.413333l61.44 44.373333c6.826667 6.826667 10.24 17.066667 3.413334 23.893333-3.413333 3.413333-10.24 6.826667-13.653334 6.826667z" p-id="5710"></path><path d="M133.12 621.226667c-10.24 0-17.066667-6.826667-17.066667-13.653334 0-10.24 6.826667-17.066667 13.653334-17.066666l85.333333-10.24c10.24 0 17.066667 6.826667 17.066667 13.653333 0 10.24-6.826667 17.066667-13.653334 17.066667l-85.333333 10.24z" p-id="5711"></path><path d="M157.013333 686.08c-3.413333 0-10.24-3.413333-13.653333-6.826667-6.826667-6.826667-6.826667-17.066667 0-23.893333L204.8 604.16c6.826667-6.826667 17.066667-6.826667 23.893333 0 6.826667 6.826667 6.826667 17.066667 0 23.893333L167.253333 682.666667c-3.413333 3.413333-6.826667 3.413333-10.24 3.413333z" p-id="5712"></path><path d="M552.96 918.186667c-215.04 0-354.986667-119.466667-354.986667-300.373334 0-122.88 64.853333-252.586667 160.426667-331.093333l-17.066667-17.066667c-27.306667-27.306667-27.306667-68.266667 0-95.573333 23.893333-23.893333 61.44-23.893333 85.333334-6.826667 3.413333-30.72 27.306667-58.026667 58.026666-61.44 37.546667-3.413333 71.68 20.48 75.093334 58.026667v51.2c197.973333 6.826667 344.746667 215.04 344.746666 402.773333 3.413333 180.906667-136.533333 300.373333-351.573333 300.373334zM389.12 187.733333c-10.24 0-17.066667 3.413333-23.893333 10.24-13.653333 13.653333-13.653333 34.133333 0 47.786667 3.413333 6.826667 17.066667 13.653333 34.133333 23.893333 6.826667 3.413333 10.24 10.24 10.24 13.653334 0 6.826667-3.413333 10.24-6.826667 13.653333-98.986667 68.266667-167.253333 197.973333-167.253333 317.44 0 160.426667 126.293333 266.24 320.853333 266.24s320.853333-105.813333 320.853334-266.24c0-170.666667-139.946667-368.64-320.853334-368.64h-13.653333c-6.826667 0-10.24-3.413333-13.653333-6.826667-3.413333-3.413333-3.413333-10.24-3.413334-13.653333 3.413333-20.48 3.413333-44.373333 3.413334-54.613333-3.413333-17.066667-20.48-30.72-37.546667-27.306667-17.066667 3.413333-30.72 20.48-27.306667 37.546667 0 10.24 10.24 37.546667 20.48 61.44 3.413333 3.413333 3.413333 10.24 0 13.653333l-10.24 10.24h-3.413333c-6.826667 3.413333-17.066667 0-20.48-10.24-10.24-23.893333-27.306667-47.786667-34.133333-54.613333-10.24-10.24-17.066667-13.653333-27.306667-13.653334z" p-id="5713"></path></svg>