<?xml version="1.0" standalone="no"?><!DOCTYPE svg PUBLIC "-//W3C//DTD SVG 1.1//EN" "http://www.w3.org/Graphics/SVG/1.1/DTD/svg11.dtd"><svg t="1727963331335" class="icon" viewBox="0 0 1024 1024" version="1.1" xmlns="http://www.w3.org/2000/svg" p-id="5999" xmlns:xlink="http://www.w3.org/1999/xlink" width="200" height="200"><path d="M799.288889 605.866667c25.6-39.822222 39.822222-91.022222 39.822222-153.6 0-156.444444-147.911111-284.444444-327.111111-284.444445-182.044444 0-327.111111 128-327.111111 284.444445 0 62.577778 14.222222 110.933333 39.822222 153.6h574.577778z" fill="#E24B4B" p-id="6000"></path><path d="M560.355556 315.733333a150.755556 125.155556 90 1 0 250.311111 0 150.755556 125.155556 90 1 0-250.311111 0Z" fill="#E24B4B" p-id="6001"></path><path d="M213.333333 315.733333a150.755556 125.155556 90 1 0 250.311111 0 150.755556 125.155556 90 1 0-250.311111 0Z" fill="#E24B4B" p-id="6002"></path><path d="M349.866667 250.311111a162.133333 125.155556 0 1 0 324.266666 0 162.133333 125.155556 0 1 0-324.266666 0Z" fill="#E24B4B" p-id="6003"></path><path d="M776.533333 699.733333c-19.911111 17.066667-36.977778 36.977778-45.511111 59.733334-19.911111 45.511111-51.2 85.333333-91.022222 110.933333-22.755556 14.222222-42.666667 34.133333-62.577778 54.044444-14.222222 17.066667-31.288889 28.444444-45.511111 36.977778-11.377778 8.533333-25.6 8.533333-36.977778 0-14.222222-8.533333-31.288889-19.911111-45.511111-36.977778-19.911111-19.911111-39.822222-39.822222-62.577778-54.044444-39.822222-25.6-73.955556-65.422222-91.022222-110.933333-8.533333-22.755556-25.6-42.666667-45.511111-59.733334-45.511111-36.977778-68.266667-93.866667-51.2-125.155555 22.755556-42.666667 88.177778-54.044444 153.6-39.822222 28.444444 5.688889 71.111111 45.511111 102.4 8.533333 36.977778-42.666667 79.644444-45.511111 119.466667 0 31.288889 36.977778 73.955556-2.844444 102.4-8.533333 65.422222-14.222222 133.688889-2.844444 153.6 39.822222 14.222222 31.288889-5.688889 88.177778-54.044445 125.155555z" fill="#FFD93B" p-id="6004"></path><path d="M770.844444 603.022222c-17.066667 0-39.822222 14.222222-56.888888 34.133334 0 0-39.822222 79.644444-93.866667 142.222222-25.6 28.444444-42.666667 48.355556-71.111111 73.955555-11.377778 11.377778-19.911111 17.066667-36.977778 17.066667-19.911111 0-25.6-8.533333-36.977778-17.066667-28.444444-25.6-48.355556-45.511111-71.111111-73.955555-54.044444-62.577778-93.866667-142.222222-93.866667-142.222222-17.066667-19.911111-42.666667-34.133333-56.888888-34.133334 22.755556-2.844444 48.355556 14.222222 62.577777 28.444445 0 0 45.511111 73.955556 99.555556 133.688889 19.911111 22.755556 48.355556 51.2 71.111111 71.111111 8.533333 8.533333 14.222222 11.377778 22.755556 11.377777 11.377778 0 14.222222-5.688889 22.755555-11.377777 22.755556-19.911111 51.2-48.355556 71.111111-71.111111 54.044444-59.733333 99.555556-133.688889 99.555556-133.688889 19.911111-14.222222 45.511111-28.444444 68.266666-28.444445z" fill="#E9B02C" p-id="6005"></path><path d="M270.222222 642.844444c-11.377778-2.844444-28.444444-14.222222-34.133333-28.444444-8.533333-17.066667 2.844444-34.133333 14.222222-39.822222 0 0 0 2.844444-2.844444 2.844444-8.533333 8.533333-11.377778 22.755556-5.688889 34.133334 5.688889 11.377778 19.911111 22.755556 28.444444 31.288888zM793.6 614.4c-5.688889 14.222222-22.755556 25.6-34.133333 28.444444 8.533333-8.533333 22.755556-19.911111 28.444444-31.288888 8.533333-17.066667 0-25.6-8.533333-36.977778 11.377778 5.688889 22.755556 22.755556 14.222222 39.822222z" fill="#E9B02C" p-id="6006"></path><path d="M583.111111 679.822222c-11.377778 11.377778-25.6 19.911111-39.822222 25.6 2.844444-5.688889 8.533333-28.444444 17.066667-42.666666 8.533333-19.911111 22.755556-22.755556 28.444444-17.066667 11.377778 5.688889 11.377778 17.066667-5.688889 34.133333zM440.888889 679.822222c11.377778 11.377778 25.6 19.911111 39.822222 25.6-2.844444-5.688889-8.533333-28.444444-17.066667-42.666666-8.533333-19.911111-22.755556-22.755556-28.444444-17.066667-11.377778 5.688889-11.377778 17.066667 5.688889 34.133333z" fill="#E9B02C" p-id="6007"></path><path d="M563.2 395.377778a110.933333 82.488889 90 1 0 164.977778 0 110.933333 82.488889 90 1 0-164.977778 0Z" fill="#D03F3F" p-id="6008"></path><path d="M725.333333 415.288889c0 56.888889-36.977778 105.244444-82.488889 105.244444-45.511111 0-82.488889-45.511111-82.488888-105.244444 0-56.888889 36.977778-105.244444 82.488888-105.244445 45.511111 0 82.488889 48.355556 82.488889 105.244445z" fill="#FFFFFF" p-id="6009"></path><path d="M696.888889 435.2c0 31.288889-22.755556 59.733333-54.044445 59.733333-31.288889 0-54.044444-25.6-54.044444-59.733333 0-31.288889 22.755556-59.733333 54.044444-59.733333 31.288889 0 54.044444 28.444444 54.044445 59.733333z" fill="#65B1EF" p-id="6010"></path><path d="M614.4 435.2a31.288889 28.444444 90 1 0 56.888889 0 31.288889 28.444444 90 1 0-56.888889 0Z" fill="#3E4347" p-id="6011"></path><path d="M665.6 415.288889m-14.222222 0a14.222222 14.222222 0 1 0 28.444444 0 14.222222 14.222222 0 1 0-28.444444 0Z" fill="#FFFFFF" p-id="6012"></path><path d="M756.622222 358.4c-5.688889-25.6-22.755556-54.044444-42.666666-73.955556-14.222222-14.222222-31.288889-22.755556-45.511112-25.6-8.533333-2.844444-17.066667-2.844444-22.755555 0-8.533333 0-17.066667-8.533333-17.066667-17.066666s8.533333-17.066667 17.066667-17.066667 22.755556 2.844444 34.133333 8.533333c17.066667 8.533333 36.977778 22.755556 48.355556 42.666667 17.066667 22.755556 25.6 56.888889 28.444444 82.488889z" fill="#3E4347" p-id="6013"></path><path d="M295.822222 395.377778a110.933333 82.488889 90 1 0 164.977778 0 110.933333 82.488889 90 1 0-164.977778 0Z" fill="#D03F3F" p-id="6014"></path><path d="M298.666667 415.288889c0 56.888889 36.977778 105.244444 82.488889 105.244444 45.511111 0 82.488889-45.511111 82.488888-105.244444 0-56.888889-36.977778-105.244444-82.488888-105.244445-45.511111 0-82.488889 48.355556-82.488889 105.244445z" fill="#FFFFFF" p-id="6015"></path><path d="M327.111111 435.2c0 31.288889 22.755556 59.733333 54.044445 59.733333 31.288889 0 54.044444-25.6 54.044444-59.733333 0-31.288889-22.755556-59.733333-54.044444-59.733333-31.288889 0-54.044444 28.444444-54.044445 59.733333z" fill="#65B1EF" p-id="6016"></path><path d="M352.711111 435.2a31.288889 28.444444 90 1 0 56.888889 0 31.288889 28.444444 90 1 0-56.888889 0Z" fill="#3E4347" p-id="6017"></path><path d="M358.4 415.288889m-14.222222 0a14.222222 14.222222 0 1 0 28.444444 0 14.222222 14.222222 0 1 0-28.444444 0Z" fill="#FFFFFF" p-id="6018"></path><path d="M267.377778 358.4c5.688889-25.6 22.755556-54.044444 42.666666-73.955556 14.222222-14.222222 31.288889-22.755556 45.511112-25.6 8.533333-2.844444 17.066667-2.844444 22.755555 0 8.533333 0 17.066667-8.533333 17.066667-17.066666s-8.533333-17.066667-17.066667-17.066667-22.755556 2.844444-34.133333 8.533333c-17.066667 8.533333-36.977778 22.755556-48.355556 42.666667-17.066667 22.755556-25.6 56.888889-28.444444 82.488889z" fill="#3E4347" p-id="6019"></path><path d="M543.288889 156.444444c31.288889-11.377778 68.266667-14.222222 102.4-5.688888-19.911111-25.6-51.2-42.666667-82.488889-45.511112 17.066667-14.222222 36.977778-25.6 59.733333-28.444444-45.511111-8.533333-91.022222 0-125.155555 28.444444 2.844444-22.755556 19.911111-39.822222 42.666666-48.355555-34.133333 2.844444-68.266667 22.755556-85.333333 54.044444-28.444444-19.911111-65.422222-22.755556-93.866667-11.377777 25.6 2.844444 51.2 17.066667 68.266667 36.977777-14.222222-2.844444-25.6-2.844444-39.822222 0 42.666667 8.533333 73.955556 45.511111 76.8 88.177778" fill="#E24B4B" p-id="6020"></path></svg>