<?xml version="1.0" standalone="no"?><!DOCTYPE svg PUBLIC "-//W3C//DTD SVG 1.1//EN" "http://www.w3.org/Graphics/SVG/1.1/DTD/svg11.dtd"><svg t="1708747920863" class="icon" viewBox="0 0 1024 1024" version="1.1" xmlns="http://www.w3.org/2000/svg" p-id="8776" xmlns:xlink="http://www.w3.org/1999/xlink" width="200" height="200"><path d="M596.473 700.333c206.549 10.995 365.42 77.727 365.42 158.421 0 88.377-190.552 160.021-425.609 160.021-235.058 0-425.61-71.644-425.61-160.021 0-78.222 149.282-143.323 346.566-157.256-11.254-36.602-20.051-75.587-29.448-115.661-5.723-24.412-13.75-56.637-14.778-88.209l-0.325-0.649c-8.259-9.763-10.546-22.287-15.202-36.056l-17.102-5.693c-36.432 55.669-117.762 104.256-194.771 119.554C142.998 583.248 83.88 579.591 64 555.807l0.95-0.95c62.872 22.366 147.338-9.994 192.871-33.208 13.356-6.81 37.859-15.442 44.655-28.466-48.168 15.171-151.818 10.734-140.615-50.289 4.243-23.11 15.795-42.395 36.104-49.339 42.395-14.497 83.44 21.869 74.107 63.572l-24.702 2.847c-0.691-10.803-2.053-25.743-6.651-33.209-7.936-3.58-17.769-12.541-31.354-9.489-15.712 3.53-28.382 28.646-18.052 45.544 29.074 11.817 101.432 17.331 123.513-5.693 0.044-19.414-8.501-31.788-13.302-47.442l-12.351-56.93c-20.229-103.155 25.314-170.96 120.663-170.791 7.695 0.014 14.855 0.575 21.62 1.553-0.51-8.223-2.162-16.167-6.674-18.838l-34.796-2.89c-26.791-4.445-51.449-11.147-64.761-28.89v-0.963c14.928 1.142 49.962 13.802 59.927 0 6.586-9.12-0.996-34.37-2.899-44.299-7.297-38.068 7.425-63.749 34.797-73.19 74.811-25.804 111.525 43.741 162.383 58.745 49.969 14.739 131.365-51 156.586-73.192 0.924 10.034-19.778 26.558-26.097 34.669-21.013 26.978-45.21 51.593-75.393 69.338-14.896 8.757-36.225 10.384-51.229 20.224l0.967 1.926c16.383 7.367 41.64 45.888 49.111 73.586 10.187-8.847 21.366-16.927 31.087-23.473 10.992-7.404 29.954-23.404 51.305-16.131 23.642 8.054 25.5 45.541 19.003 74.959-8.305 37.598-20.171 71.997-34.204 104.372-9.185 17.394-18.37 34.793-27.554 52.187 13.952 5.639 21.552 20.467 23.753 37.953l15.202-0.949c-0.633-36.516 13.515-73.343 36.104-87.293 32.504-20.074 77.291 11.989 84.56 37.954 3.688 13.176-3.569 24.174-7.601 30.362-25.601 39.29-73.467 39.599-132.064 46.494-8.414 25.175-46.607 42.832-79.81 31.312-14.638-5.079-24.927-14.413-36.104-22.772l-3.801 2.847c3.32 12.324-1.663 24.07-6.956 34.216-0.459 64.867 7.034 123.339 22.467 174.869l7.708 23.683z m143.049-274.518c22.403-5.498 46.719-6.365 58.906-21.824 15.938-20.213-5.286-43.096-28.503-43.646-13.729 7.444-40.501 40.679-30.403 65.47zM144.01 859.31c0 81.319 175.378 147.241 391.716 147.241 216.34 0 391.718-65.922 391.718-147.241 0-72.965-141.201-133.522-326.487-145.199l11.763 36.146h-0.958l-2.875-1.912-18.204-27.723a171.325 171.325 0 0 1-3.49-7.288 986.488 986.488 0 0 0-12.714-0.55c8.15 26.185 18.568 49.933 25.944 75.503 78.386 10.062 134.774 38.059 134.774 71.022 0 41.427-89.057 75.01-198.914 75.01-109.858 0-198.915-33.583-198.915-75.01 0-35.647 65.938-65.483 154.327-73.117-12.173-22.277-21.906-46.247-30.242-71.47C280.636 727.77 144.01 787.536 144.01 859.31z m402.94-342.904a28.463 28.463 0 0 1-2.198 2.395l0.951-38.902h-0.951c-0.143 5.604-1.34 12.176-3.246 18.892l1.267-1.854c-0.43 38.549-0.186 83.576 9.583 115.667l6.706-0.957c-1.958-28.384-11.109-63.381-12.112-95.241z m10.453-23.373l-0.3 0.149c-0.019 0.179-0.066 0.367-0.088 0.547l0.388-0.696zM528.4 590.618c-2.227-12.117 0.742-37.228-6.707-44.929-2.126 52.289-3.297 106.593 6.646 153.081 1.688-0.011 3.38-0.02 5.072-0.024 0.694-38.57 1.136-74.669-5.011-108.128z m-18.688-63.329l1.44-0.718c2.675-8.423 7.429-15.159 11.672-22.418-0.205-1.222-0.478-2.373-0.876-3.379v1.898c-4.242 7.378-8.471 16.069-12.236 24.617z m-28.616-45.493l0.659 15.142c0.203 0.983 0.407 1.986 0.611 2.984 0.701-6.647 1.899-14.789-1.27-18.126z m20.963 50.301l2.174-32.885c-0.427-3.107-1.121-6.099-2.234-8.876-2.09 14.955-7.717 27.795-13.672 40.24a2267.953 2267.953 0 0 1 9.412 54.306l0.958-1.912 2.422-36.652h-1.021c0.33-4.207 1.123-9.062 1.961-14.221z m-9.112 141.685c0.073 7.364 0.724 16.195 1.853 25.709 2.592-0.094 5.189-0.183 7.796-0.261-1.822-9.819-4.596-18.73-9.649-25.448z m-12.673 39.762c-0.681 0.035-1.364 0.069-2.043 0.106 0.673 1.142 1.417 2.201 2.261 3.149-0.074-1.084-0.146-2.169-0.218-3.255z m124.781 97.891a10038.53 10038.53 0 0 1-4.791-3.822l-7.666-10.516v2.867l11.499 23.898h-0.958l-1.917-0.955-11.498-18.164c-1.614-3.681-2.979-7.623-4.27-11.645a444.86 444.86 0 0 0-10.943-1.016c4.317 15.332 10.54 29.544 17.13 40.383 5.355 8.81 15.3 16.024 18.204 26.766h-0.958l-5.748-4.779c-8.42-19.545-23.144-36.802-31.62-58.313a132.392 132.392 0 0 1-1.62-4.406 467.692 467.692 0 0 0-9.772-0.588c9.89 23.794 22.246 49.407 29.598 59.482l42.159 43.016v0.957c-14.021-4.314-20.199-19.682-32.577-25.811v0.957c5.11 11.151 10.222 22.306 15.33 33.457-27.646-18.366-66.554-74.561-76.653-109.932h-1.916l9.58 44.928 36.411 42.061h-0.958c-22.303-13.122-32.357-38.797-51.742-54.486l24.914 43.016h-0.959c-1.916-1.593-3.832-3.187-5.749-4.779l-19.163-21.029-31.62-47.797c-0.566-0.962-1.114-1.934-1.67-2.902-81.412 7.007-142.161 34.471-142.161 67.288 0 38.116 81.965 69.019 183.074 69.019 101.109 0 183.073-30.902 183.073-69.019 0-29.301-48.432-54.335-116.757-64.349a242.063 242.063 0 0 1 3.673 16.213h-0.959z m-32.231-25.868c3.549 0.247 7.062 0.534 10.54 0.851-3.548-11.503-7.196-22.937-14.721-30.427 0.312 9.813 1.842 19.849 4.181 29.576z m-51.131 7.705l-0.676-2.489c-0.366 0.011-0.729 0.023-1.094 0.036a38.404 38.404 0 0 0 1.77 2.453z m-2.363-8.699c-3.363-12.396-6.729-24.79-10.094-37.186-2.36-10.826-3.277-23.069-4.684-34.854-2.651 0.078-5.293 0.165-7.929 0.263 4.093 26.413 11.261 55.152 19.752 71.877 0.982-0.036 1.969-0.069 2.955-0.1z m29.191-91.672h-1.916l-0.098 5.88c1.163 0.011 2.322 0.028 3.483 0.043-0.47-2.001-0.959-3.978-1.469-5.923z m-2.237 19.222l-0.638 38.134c1.764 7.805 6.25 20.532 11.855 34.469 3.443 0.137 6.859 0.308 10.248 0.512-6.813-22.269-10.143-48.775-14.893-73.021-2.186-0.035-4.375-0.072-6.572-0.094zM445.039 545.689c8.187 51.72 11.704 97.755 24.913 140.521 1.366 4.426 2.335 9.431 3.514 14.262 1.967-0.11 3.939-0.213 5.914-0.313-0.906-13.571-1.813-27.146-2.721-40.715v-52.576c-3.503-17.468-19.806-68.651-22.985-96.145l-2.982-6.155h-1.9l2.851 27.517h-0.951l-0.95-1.898c-2.058-2.162-3.998-4.743-5.816-7.585-0.229 7.692-0.093 15.468 1.113 23.087z m-18.878-68.054l0.672 1.14-0.772-6.167-0.072-0.299 0.172 5.326z m-13.134 6.588c0.101-2.723 0.271-5.429 0.506-8.119h-0.845l0.339 8.119z m16.762-274.744l-36.104-1.897c-12.342 4.745-25.625 4.608-36.104 9.488l16.152 16.13c11.333 24.187 35.032 38.03 28.503 75.907H400.335v-1.898c-15.697-36.167-27.556-58.395-57.006-79.703h-2.85c-7.771 10.169-18.594 18.595-20.903 34.159 20.295 6.884 76.646 81.848 55.107 111.963l-1.901-0.949c-0.004-40.191-32.878-76.188-57.006-93.935l-1.9 0.949c-0.69 15.855-6.951 43.746 0 58.828l14.252 14.232c12.172 15.27 28.415 31.389 35.153 51.237h-0.95l-1.9-0.948c-7.096-18.2-25.404-34.55-41.805-43.647h-0.951v3.796c7.332 26.205 14.994 51.803 21.853 74.958l1.9 22.772c44.775-41.134 68.317-101.84 82.66-173.638 4.053-20.279 11.594-54.5 5.701-77.804z m15.292-165.18c-15.175 6.808-28.466 17.673-18.365 37.558 2.257 4.443 3.603 9.134 8.699 10.593 23.68 6.782 67.917-5.02 88.925-7.705-6.577-20.463-48.853-40.756-79.259-40.446z m73.46 85.71c-13.312-3.985-53.203-13.187-65.727-2.889-1.997 1.891-1 0.361-1.934 3.852 5.935 16.981 5.746 38.211 3.559 57.944 0.648 0.215 1.312 0.414 1.954 0.637l-2.851 89.191c28.612 0.114 114.006-1.091 128.265-11.386 14.535-10.494 18.349-27.506 28.503-42.698 0.114-0.171 0.247-0.343 0.363-0.515-5.595-58.014-42.479-79.272-92.132-94.136z m95.568 329.965c10.686 3.264 36.683 10.118 42.756-2.847h-10.452l-33.254 0.949 0.95 1.898z m-17.101-28.466l73.158-0.949v-4.744c-7.197-11.652-12.558-15.793-32.304-15.181-16.034 6.798-30.354 8.164-40.854 19.925v0.949z m51.305-51.237c21.714-42.628 43.243-82.362 57.006-135.684 3.418-13.244 12.429-42.771 3.801-56.931v-1.897c-26.181-2.938-57.308 30.071-69.358 46.493 8.176 39.378 14.933 107.357-19.951 125.247h-0.951c7.423-32.267 21.779-62.481 7.603-104.372l-1.901 0.949c-5.7 8.222-11.401 16.447-17.103 24.67 17.934 32.06-5.249 117.422-33.253 121.452 0.95-1.266 1.9-2.531 2.851-3.795 15.387-37.712 18.263-52.624 17.102-105.322l-15.202 5.693c4.994 43.538-7.947 123.86-43.704 129.042 0.95-1.265 1.899-2.53 2.851-3.795 12.432-30.2 32.86-75.603 19.951-123.35l-13.301 0.949c3.447 48.807-3.32 127.234-42.754 135.685v-0.949c16.162-29.413 36.096-81.421 21.852-131.889l-14.251 0.949c9.897 50.826-3.175 98.55-33.254 121.452l-1.9-0.948 1.9-1.898c17.345-39.65 22.441-60.892 17.102-117.656h-13.301c3.222 33.916 1.687 93.52-29.454 100.578v-0.95c16.29-29.906 17.393-53.923 15.203-98.679-4.988-0.864-14.609-2.409-18.052 0.949-10.27 22.445-11.75 48.597-20.902 70.214l-29.454 56.931c40.902 19.415 116.848 32.109 164.368 9.488 5.936-39.582 47.055-55.322 86.456-62.626z m-85.418 250.496h-0.959c-0.452 25.841 3.186 48.058 8.623 68.483 3.679 0.11 7.343 0.238 10.995 0.384-7.92-21.337-13.206-44.875-18.659-68.867z m-36.07-390.125c-18.818 0-34.073-15.212-34.073-33.978s15.255-33.978 34.073-33.978c18.817 0 34.072 15.212 34.072 33.978s-15.254 33.978-34.072 33.978z" fill="" p-id="8777"></path></svg>