<?xml version="1.0" standalone="no"?><!DOCTYPE svg PUBLIC "-//W3C//DTD SVG 1.1//EN" "http://www.w3.org/Graphics/SVG/1.1/DTD/svg11.dtd"><svg t="1727963214873" class="icon" viewBox="0 0 1024 1024" version="1.1" xmlns="http://www.w3.org/2000/svg" p-id="5526" xmlns:xlink="http://www.w3.org/1999/xlink" width="200" height="200"><path d="M442.6 908c-0.2-0.1-0.4-0.3-0.8-0.5-21.4-14.2-38.6-13.9-50.2-10.2l-0.3-0.3c-0.5-3.3-2-13.3-1.8-20.3 0.2-8.4 3.1-18.5 3.1-18.6 0.6-2.1-0.6-4.3-2.7-5-2.1-0.6-4.4 0.6-5.1 2.7-0.1 0.4-3.2 11.2-3.5 20.6-0.3 9.3 2 22.5 2.1 23 0.1 0.4 0.2 0.8 0.4 1.1-21 11.3-26.4 36.1-26.6 37.2-0.5 2.2 0.9 4.3 3.1 4.7 0.3 0.1 0.6 0.1 0.8 0.1 1.9 0 3.5-1.3 3.9-3.2 0-0.2 5.2-23.5 24.1-32.6 4.3 5 10.5 12.6 15.2 19.3 8.5 12.6 12.5 29 12.5 29.1 0.4 1.8 2.1 3.1 3.9 3.1 0.3 0 0.6 0 0.9-0.1 2.1-0.5 3.5-2.7 3-4.8-0.2-0.7-4.4-17.9-13.8-31.7-4.1-6.1-9.4-12.7-13.7-17.7 9.7-2.1 23.2-1 39.9 10.1 0.6 0.4 1.1 0.7 1.3 0.8 1.9 1.1 4.5 0.4 5.6-1.5 1.3-1.9 0.7-4.2-1.3-5.3zM597.7 905c0.2-0.1 0.4-0.3 0.8-0.5 21.4-14.2 38.6-13.9 50.2-10.2l0.3-0.3c0.5-3.3 2-13.3 1.8-20.3-0.2-8.4-3.1-18.5-3.1-18.6-0.6-2.1 0.6-4.3 2.7-5 2.1-0.6 4.4 0.6 5.1 2.7 0.1 0.4 3.2 11.2 3.5 20.6 0.3 9.3-2 22.5-2.1 23-0.1 0.4-0.2 0.8-0.4 1.1 21 11.3 26.4 36.1 26.6 37.2 0.5 2.2-0.9 4.3-3.1 4.7-0.3 0.1-0.6 0.1-0.8 0.1-1.9 0-3.5-1.3-3.9-3.2 0-0.2-5.2-23.5-24.1-32.6-4.3 5-10.5 12.6-15.2 19.3-8.5 12.6-12.5 29-12.5 29.1-0.4 1.8-2.1 3.1-3.9 3.1-0.3 0-0.6 0-0.9-0.1-2.1-0.5-3.5-2.7-3-4.8 0.2-0.7 4.4-17.9 13.8-31.7 4.1-6.1 9.4-12.7 13.7-17.7-9.7-2.1-23.2-1-39.9 10.1-0.6 0.4-1.1 0.7-1.3 0.8-1.9 1.1-4.5 0.4-5.6-1.5-1.3-2-0.6-4.2 1.3-5.3z" fill="" p-id="5527"></path><path d="M508.9 881c-56.8 0-115.2-18.8-154.1-34.6-36.1-14.6-62.9-29.5-69.9-33.6-5.2 2.2-18.7 7.1-30.1 1-11.6-6.2-17.2-22.2-18.8-27.3-5.1-3.3-22-15.3-29.6-33.4-11.6-27.5 1.1-57.6 3.7-63.2 0.1-7.3 1.5-53.4 18.7-85 16.2-29.5 65-80 77.3-92.6l-5.2-5.4c-3.3-0.5-10.6-2.3-16.9-8.8-5.6-5.8-7.4-12.6-8.1-16.3-1-0.1-2.6 0.1-4.9 1-5.7 2.2-8.9 6.6-8.9 6.7l-5.8 8-1.5-9.7c-0.1-0.6-2.2-15.4 5.4-28.3 2.6-4.4 6.5-9.2 9.8-12.9-1 0.2-2 0.4-3 0.8-7.5 2.3-14.7 7.7-14.8 7.7l-9.3 7 3-11.2c0.2-0.9 6.3-23.2 13.7-34.8 6.4-9.9 22.4-22.6 27.6-26.6-0.2-7.2-0.1-30.9 5.9-61.4 6.6-33.1 21.8-80.1 57-117.1 38.2-39.9 91.7-60.3 159.1-60.3 72.5 0 129.2 21.2 168.7 63 33.9 35.9 48.4 80.5 54.6 111.7 5.5 27.8 5.6 49.6 5.4 57 4.9 2.7 15.6 9.6 21 20.8 8.2 17 25 15.4 25.2 15.4l4.7-0.5-0.2 4.6c0 0.5-0.6 11.2-11.6 17.5-5.4 3-16.3 4.7-21.7 5.3 0 0 2.4 5.3 6.2 8.8 4.8 4.3 16 10 16 10l-3.6 3.4c-0.4 0.4-9.1 9.2-19.1 11.7-6.8 1.7-14.8 0.7-19.4-0.2-1.3 4-3.8 10.6-7.3 16.2-3.9 6.4-9.4 11.5-13.2 14.5 13.7 11.5 57.6 50 75.9 84.9 26.1 49.8 25.1 88.6 24.6 95.9 2.7 5.5 13.4 30.4 1.8 58.1-7.9 18.9-26.7 32.1-32.1 35.6-1.6 5.4-7.5 22-18.7 26.3-14.7 5.6-24.4 1.4-28.8-1.6-7.1 5.2-27.9 20-60.5 34.8-36.6 16.8-95.4 36.7-167.5 36.8-0.5 0.3-0.6 0.3-0.7 0.3z" fill="#FFF18A" p-id="5528"></path><path d="M508.8 151c72.5-0.1 129.2 21.1 168.8 62.8 34 35.9 48.5 80.4 54.7 111.6 5.6 27.8 5.6 49.6 5.5 57 4.9 2.7 15.6 9.6 21 20.8 8.2 17 25 15.3 25.2 15.3l4.7-0.5-0.2 4.6c0 0.5-0.6 11.2-11.6 17.5-5.4 3-16.3 4.7-21.7 5.3 0 0 2.5 5.3 6.2 8.8 4.8 4.3 16 10 16 10l-3.6 3.4c-0.4 0.4-9.1 9.2-19.1 11.7-6.8 1.7-14.8 0.7-19.4-0.2-1.3 4-3.8 10.6-7.3 16.2-3.9 6.4-9.4 11.5-13.2 14.5 13.7 11.4 57.7 49.9 76 84.8 26.2 49.6 25.2 88.5 24.7 95.9 2.7 5.5 13.4 30.4 1.9 58.1-7.8 18.9-26.7 32.1-32.1 35.6-1.6 5.4-7.4 22-18.7 26.3-14.7 5.7-24.4 1.5-28.8-1.6-7.1 5.2-34.9 20-67.4 34.8 0 0 120.1-89.3 101.4-191.4-12.8-70.1-89.7-122.7-89.7-122.7l-36.1 3.5s103.3-61.4 51.7-236.6C659.1 166.6 508.8 151 508.8 151" fill="#FBFAC1" p-id="5529"></path><path d="M354.6 846.4c-36.1-14.6-62.9-29.5-69.9-33.6-5.2 2.2-18.7 7.1-30.1 1-11.6-6.2-17.2-22.2-18.8-27.3-5.1-3.3-22-15.3-29.6-33.4-11.6-27.5 1.1-57.6 3.7-63.2 0.1-7.3 1.5-53.4 18.7-85 16.2-29.5 65-80 77.3-92.6l-5.2-5.4c-3.3-0.5-10.6-2.3-16.9-8.8-5.6-5.8-7.4-12.6-8.1-16.3-1-0.1-2.6 0.1-4.9 1-5.7 2.2-8.9 6.6-8.9 6.7l-5.8 8-1.5-9.7c-0.1-0.6-2.2-15.4 5.4-28.3 2.6-4.4 6.5-9.2 9.8-12.9-1 0.2-2 0.4-3 0.8-7.5 2.3-14.7 7.7-14.8 7.7l-9.3 7 3-11.2c0.2-0.9 6.3-23.2 13.7-34.8 6.4-9.9 22.4-22.6 27.6-26.6-0.2-7.2-0.1-30.9 5.9-61.4 6.6-33.1 22.4-79.5 57-117.1 53.1-57.5 172.3-60.3 172.3-60.3s-151 35.9-185.1 148.3c-46.7 153.9 30.1 232.7 30.1 232.7l-30-2.6s-85.3 60.8-75.1 176.1c7.2 80.4 122.7 146.6 122.7 146.6s-26.4-3.8-30.2-5.4z" fill="#F0C85B" p-id="5530"></path><path d="M409.6 861.4s-39.7-119.1-14-196.8c21.7-65.7 59.4-94.5 134.8-94.1 46.1 0.2 97.1 16 117.8 82.3 25.5 81.6-8.7 199.2-8.7 199.2s-44.6 24.6-114.4 24.6c-48.8 0-115.5-15.2-115.5-15.2z" fill="#FFFFFF" p-id="5531"></path><path d="M508.7 881c-56.8 0-115.2-18.8-154.1-34.6-36.1-14.6-62.9-29.5-69.9-33.6-5.2 2.2-18.7 7.1-30.1 1-11.6-6.2-17.2-22.2-18.8-27.3-5.1-3.3-22-15.3-29.6-33.4-11.6-27.5 1.1-57.6 3.7-63.2 0.1-7.3 1.5-53.4 18.7-85 16.2-29.5 65-80 77.3-92.6l-5.2-5.4c-3.3-0.5-10.6-2.3-16.9-8.8-5.6-5.8-7.4-12.6-8.1-16.3-1-0.1-2.6 0.1-4.9 1-5.7 2.2-8.9 6.6-8.9 6.7l-5.8 8-1.5-9.7c-0.1-0.6-2.2-15.4 5.4-28.3 2.6-4.4 6.5-9.2 9.8-12.9-1 0.2-2 0.4-3 0.8-7.5 2.3-14.7 7.7-14.8 7.7l-9.3 7 3-11.2c0.2-0.9 6.3-23.2 13.7-34.8 6.4-9.9 22.4-22.6 27.6-26.6-0.2-7.2-0.1-30.9 5.9-61.4 6.6-33.1 21.8-80.1 57-117.1 38.2-39.9 91.7-60.3 159.1-60.3 72.5 0 129.2 21.2 168.7 63 33.9 35.9 48.4 80.5 54.6 111.7 5.5 27.8 5.6 49.6 5.4 57 4.9 2.7 15.6 9.6 21 20.8 8.2 17 25 15.4 25.2 15.4l4.7-0.5-0.2 4.6c0 0.5-0.6 11.2-11.6 17.5-5.4 3-16.3 4.7-21.7 5.3 0 0 2.4 5.3 6.2 8.8 4.8 4.3 16 10 16 10l-3.6 3.4c-0.4 0.4-9.1 9.2-19.1 11.7-6.8 1.7-14.8 0.7-19.4-0.2-1.3 4-3.8 10.6-7.3 16.2-3.9 6.4-9.4 11.5-13.2 14.5 13.7 11.5 57.6 50 75.9 84.9 26.1 49.8 25.1 88.6 24.6 95.9 2.7 5.5 13.4 30.4 1.8 58.1-7.9 18.9-26.7 32.1-32.1 35.6-1.6 5.4-7.5 22-18.7 26.3-14.7 5.6-24.4 1.4-28.8-1.6-7.1 5.2-27.9 20-60.5 34.8-36.6 16.8-95.4 36.7-167.5 36.8-0.5 0.3-0.6 0.3-0.7 0.3z m-0.1-8.1h0.4c70.5-0.1 128.2-19.8 164.2-36.1 38.9-17.8 56.8-31.9 63.4-36.2 5.6-3.5 20.4-16.1 20.4-16.1 0 0.1-4.8 7.1-8.3 12-2.7 3.7-6.1 6.9-6.1 6.9s7.6 4.9 20.3 0.1c7.7-2.9 13.2-17.2 14.3-22.4 1.1-5.1 2.5-17.4 3.2-34.8 0.9-22.2-2-46.5-2-46.5s7.5 24.3 7.4 42.4c-0.1 13.6-0.6 32.1-0.6 32.1s18.7-15.5 24-28.4c5.2-12.4 3.6-31.2 0.5-44.3-3.7-15.5-9.9-24.9-13.1-29.5-6.5-9.7-14.5-18.2-14.5-18.2s9.7 7.9 14 12.2 10.7 13 10.7 13 1-32.5-23.7-80.3c-18.2-35.2-75.9-84-75.9-84s-14.9 11.6-30.5 15.7c-18.3 4.8-37.9 2.2-37.9 2.2s22-2 36.2-7.8c16.7-6.8 30.6-18.4 30.6-18.4 0.3-0.2 9.5-6.1 15-15.1 4.7-7.7 7.5-17.8 7.5-17.9l-4.8-6.2s5 2.4 9.7 3.4c4.8 0.9 11.3 2.9 19.2 1 4.9-1.2 9.6-4.6 12.5-7.1 0 0-10-4.2-15.6-13.8-6.7-11.4-7.3-25.9-7.3-25.9s2.5 5 4.7 8.1 4.3 4.6 4.3 4.6c0.1 0 13.6 0.1 21.7-4.5 3.4-1.9 5.4-4.5 6.4-6.7-8.6-1-20.8-5.7-27.6-20-5.6-11.6-19.3-18.1-19.4-18.1l-2.5-1.1 0.1-2.7c0-0.2 1.3-25.1-5.2-57.8-6-30-19.9-73.1-52.4-107.4-38-40-92.7-60.4-162.7-60.4-65.1 0-116.7 19.4-153.2 57.7-33.9 35.3-47.5 81-54.9 112.7-7 29.6-5.9 56.9-5.9 56.9s4.9-2 8.5-2.5 8.1 0.5 8.1 0.5l-18.1 10.3c-0.2 0.1-20.6 15.2-27.3 25.7-3.7 5.9-7.3 15.3-9.6 22.5 2.4-1.2 5.1-2.4 7.8-3.2 7.7-2.2 11.8-1.6 16.2-1.1 5 0.6 9.5 3.1 9.5 3.1s-3.6 0.5-7.8 3.7c-4.1 3.2-10.4 9.9-15.3 18.2-2.8 4.8-4 10.2-4.4 14.5 1.5-1 3.3-1.8 5.3-2.7 17.7-8.2 27.5 0.8 27.5 0.8s-4.5 0.2-6.8 0.7-5.1 1.8-5.1 1.8c0 0.1 0.3 7.8 6.2 13.9 5.8 6 13 6.4 13.1 6.4l1.6 0.1s11.1 12.4 24.1 19.7c15 8.3 38.8 13.1 38.8 13.1s-16.3 0.6-30-2.6c-12.1-2.9-25.1-11.8-25.1-11.8-0.6 0.6-60.1 58.8-76.6 91.5-18.8 37.4-17.2 69.8-17.2 69.8s6.4-7.6 9.1-10.4c3.8-4.1 12.4-10.8 12.4-10.8s-9 10.2-15.3 19.8c-1.4 2-4.5 7.8-7.2 14.8-6 15.3-11.7 39.7-3.9 57.8 7.1 16.7 23.5 27.6 23.5 27.6s-2.5-18.2-0.2-34.7c2-14.2 8-39.9 8-39.9s-2.9 32.5-2.6 46.3c0.4 18 2.1 37.3 2.1 37.3 0 0.2 6.1 15.8 14.1 20.2 9.6 5.1 20.3-0.2 20.3-0.2L267 794.1s25.4 15.8 64.5 33.2c48.5 21.6 118 45.6 177.1 45.6z" fill="" p-id="5532"></path><path d="M409.6 865.4c-1.7 0-3.2-1.1-3.8-2.7-0.1-0.3-10.1-30.5-16.8-69.8-9-53.1-8.1-96.6 2.8-129.5 22.9-69.2 63.1-97.3 138.6-96.9 63.1 0.3 104 29 121.6 85.2 7.4 23.7 14.3 65.8 5.3 132-5.4 39.4-14 69.3-14.1 69.5-0.6 2.1-2.8 3.3-5 2.7-2.1-0.6-3.3-2.8-2.7-5 0.3-1.2 33.6-117.4 8.8-196.9-16.4-52.5-54.8-79.2-114-79.5-37.3-0.2-64.4 6.6-85.2 21.6-20.3 14.4-34.8 36.6-45.8 69.8-25 75.5 13.6 193.1 14 194.3 0.7 2.1-0.4 4.4-2.5 5.1-0.4 0.1-0.8 0.1-1.2 0.1z" fill="" p-id="5533"></path><path d="M558.8 505.5c-16.3 28.6-39.6 0-39.6 0s-16.7 32-36.3 18.9c-39.3-26.3 18.9-86.1 33.8-86.1 13.5 0.1 55.7 43.5 42.1 67.2z" fill="#EE3324" p-id="5534"></path><path d="M558.8 505.5c-16.3 28.6-39.6 0-39.6 0s-16.7 32-36.3 18.9c-21.8-14.6-12.6-43.3 3.1-62.6 12.6-15.4 30.7-23.5 30.7-23.5s-14.2 9.8-23.5 27.2c-6.8 12.6-11.7 33.5-3.6 36.7 16.4 6.4 20-15.3 30.7-16.4 10.9-1.1 8.5 17.6 26.1 16.8 7.4-0.4 11-24.5 11-24.5s5.8 19.7 1.4 27.4z" fill="#BE1E26" p-id="5535"></path><path d="M492.5 531.6c-4.1 0-8.1-1.3-11.9-3.8-13.9-9.4-18.4-23.5-12.9-40.8 3.6-11.6 12-24.6 22.9-35.8 3.9-3.9 17.1-16.8 26.3-16.8 11.2 0 30.7 18.5 40.5 35.2 8.9 15 10.8 28.1 5.1 37.9-5.2 9.2-11.8 14.1-19.5 14.7-9.5 0.8-18.2-5.5-23-10.1-4.1 6.1-12.1 16.3-22.4 18.8-1.7 0.5-3.4 0.7-5.1 0.7z m24.2-89.1c-2.7 0-10.7 4.4-20.3 14.3-10.1 10.3-17.6 22.2-20.9 32.6-4.3 13.9-1.1 24.6 9.7 31.7 3.4 2.3 6.8 2.9 10.3 2.1 9.3-2.3 17.6-14.9 20-19.6l2.9-5.5 4 4.8c2.8 3.3 11.7 11.9 19.9 11.2 4.8-0.4 9.2-3.9 12.9-10.7 5.4-9.6-0.8-22.9-5-29.9-11-18.1-28.3-31-33.5-31z" fill="" p-id="5536"></path><path d="M543.3 468.2c3.3 3.1 4 7.7 1.5 10.4-2.5 2.6-7.3 2.3-10.6-0.8-3.3-3.1-4-7.7-1.5-10.4 2.5-2.6 7.2-2.3 10.6 0.8z" fill="#FFFFFF" p-id="5537"></path><path d="M579.7 413.7S553.1 459 509.6 459c-39.6 0-70.3-47.3-70.3-47.3s32.1-6.7 37.7-25.9c12.5-42.4 25.9-41 34.9-41 11.8 0 28.9 4.8 35 45.7 4 26.2 32.8 23.2 32.8 23.2z" fill="#FBAF1D" p-id="5538"></path><path d="M571.2 425.4s-18.1 33.7-61.5 33.7c-39.6 0-70.3-47.3-70.3-47.3l19.7-7.3s19.6 35.7 48.8 38.6c45.4 4.4 63.3-17.7 63.3-17.7z" fill="#CB5B1B" p-id="5539"></path><path d="M682.8 393.3c-1.4-0.7-35.4-16.1-81.7-0.2-7 2.4-13.1 7.5-19.2 13.7h-0.9c-1.1 0.1-28.6 2.3-32.1-22.9-2.8-19.8-9.6-42.3-38.3-42.3-23.5 0-29 17-36.1 38.7l-0.5 1.5c-7.3 22.5-32.9 24.9-34.1 25h-0.2c-5.8-5-12.5-9.7-20.7-13.2-40.9-17.7-78.9-1.1-80.5-0.4-2.1 0.9-3 3.3-2.1 5.3s3.4 2.9 5.4 2c0.4-0.2 36.3-15.7 73.7 0.4 15.8 6.9 25.8 18.4 35.6 29.6 14.1 16.2 28.6 33.1 59.5 33.1 32.7 0 51.7-22.2 67-40 9.1-10.7 17.1-20 26.1-23.1 42.9-14.8 75.1-0.3 75.5-0.2 2.1 0.9 4.5 0.1 5.4-1.9 1.1-1.7 0.3-4.1-1.8-5.1z m-200.9-9.1l0.5-1.5c7.5-23 11.5-33.1 28.3-33.1 18.2 0 26.6 9.9 30.2 35.4 2.8 20.2 17.8 27.6 30.5 29.5-18.1 6.1-51.8 16.7-62.8 16.7-12.1 0-45.2-11.9-60.3-17.7 9.8-2.5 27.1-9.6 33.6-29.3z m28.9 71.6c-26.9 0-39-13.8-52.9-29.9 15.8 5.7 39.4 13.5 50.6 13.5 11.4 0 40.2-8.9 57.7-14.6-13.7 15.5-29.8 31-55.4 31z" fill="" p-id="5540"></path><path d="M613.891728 434.963444a23.200464 45.300906 86.639 1 0 90.445973-5.311702 23.200464 45.300906 86.639 1 0-90.445973 5.311702Z" fill="#FF837A" p-id="5541"></path><path d="M656 423.5l-10.7 16.8c-0.6 1-2.1 1.3-3.2 0.7-1-0.6-1.3-2-0.7-3.1l10.7-16.8c0.6-1 2.1-1.3 3.2-0.7 0.9 0.7 1.3 2.1 0.7 3.1zM680.3 422.1l-10.7 16.8c-0.6 1-2.1 1.3-3.2 0.7-1-0.6-1.3-2-0.7-3.1l10.7-16.8c0.6-1 2.1-1.3 3.2-0.7 1.1 0.7 1.4 2.1 0.7 3.1z" fill="#FFFFFF" p-id="5542"></path><path d="M325.7 432.3a45.3 23.2 0 1 0 90.6 0 45.3 23.2 0 1 0-90.6 0Z" fill="#FF837A" p-id="5543"></path><path d="M368.3 423.4l-11.7 16.1c-0.7 1-2.2 1.2-3.2 0.5s-1.2-2.1-0.5-3.1l11.7-16.1c0.7-1 2.2-1.2 3.2-0.5s1.2 2.1 0.5 3.1zM392.8 423.4l-11.7 16.1c-0.7 1-2.2 1.2-3.2 0.5s-1.2-2.1-0.5-3.1l11.7-16.1c0.7-1 2.2-1.2 3.2-0.5 0.9 0.7 1.2 2.1 0.5 3.1z" fill="#FFFFFF" p-id="5544"></path><path d="M592.2 170.7c-9.6 23-33.7 35.3-42.7 30.7-10.8-5.4-20.3-29.9-10.7-52.9s40.1-32.4 48.2-29c11.9 5.1 14.8 28.2 5.2 51.2z" fill="#EE3324" p-id="5545"></path><path d="M589.9 175.4s-24.5 34.8-40.9 29.3c-11.4-3.8-22-30.6-10.7-52.9 23-45.7 50.5-30.8 50.5-30.8s-50.5 30.8-31 64.1c5.8 9.8 32.1-9.7 32.1-9.7z" fill="#BE1E26" p-id="5546"></path><path d="M552 205.1c-1.4-0.2-2.7-0.5-3.8-1.1-11.7-5.8-22.6-31.3-12-56.4 10.2-24.6 42.4-34.4 51.8-30.5 4.4 1.8 7.8 5.5 10 10.8 4.7 11.2 3.4 28-3.1 43.9-7.2 17.3-21.6 27.8-31.7 31.5-4.2 1.6-8 2.2-11.2 1.8z m32.3-83.3c-3.6-0.4-11.1 0.7-19.7 4.9-6.5 3.1-18 10.3-23.3 23-8.8 21.1-0.3 44.4 9.4 49.4 2.1 1.1 6.1 0.8 10.5-0.9 9-3.3 21.9-12.8 28.4-28.4 6-14.4 7.3-29.9 3.1-39.7-1.6-3.9-4-6.7-7-7.9-0.3-0.3-0.8-0.4-1.4-0.4z" fill="" p-id="5547"></path><path d="M513.9 129.8c7.9 27.5-5 55.6-16.4 57.9-13.6 2.8-39.7-12.4-47.6-39.8s12.9-57.5 22.5-60.3c14.6-4.2 33.7 14.7 41.5 42.2z" fill="#EE3324" p-id="5548"></path><path d="M515.4 135.5s2.9 48.7-15.7 55.4c-13.1 4.7-41.7-11.9-47.6-39.8-12-57.3 23.3-63.6 23.3-63.6s-23.3 63.6 18.1 79.5c12.1 4.7 21.9-31.5 21.9-31.5z" fill="#BE1E26" p-id="5549"></path><path d="M502.6 189.1c-1.4 0.9-2.8 1.5-4.3 1.8-14.8 3.1-42.7-12.1-51.3-42.1-8.4-29.4 13.5-61.1 24.7-64.3 5.2-1.5 10.9-0.6 16.7 2.6 12.2 6.8 23.2 22.8 28.6 41.7 5.9 20.7 0.6 40.3-5.8 50.8-2.5 4.4-5.6 7.5-8.6 9.5z m-30.8-97.7c-3.5 2.2-9.5 8.6-14.2 18.4-3.5 7.4-8.8 22.1-4.5 37.2 7.2 25.2 31.6 40.2 43.8 37.6 2.7-0.6 6-3.6 8.8-8.3 5.7-9.5 10.5-27.1 5.2-45.8-5-17.1-15-32-25.6-37.9-4.3-2.3-8.4-3-11.8-2.1-0.6 0.3-1.1 0.5-1.7 0.9z" fill="" p-id="5550"></path><path d="M563.1 143c-9.9 34.8-42.5 56.5-56.3 51.5-16.5-5.9-34.4-39.6-24.5-74.4s52.2-53.3 64.5-50c18.2 5.3 26.2 38.1 16.3 72.9z" fill="#EE3324" p-id="5551"></path><path d="M560.8 150.2s-29.4 54.2-53.9 49.2c-17.2-3.5-36.8-40.4-24.5-74.4 25.3-69.6 67.5-53 67.5-53s-67.5 53-33.6 97.6c9.9 13 44.5-19.4 44.5-19.4z" fill="#BE1E26" p-id="5552"></path><path d="M511.2 199.2c-2.1 0-4-0.3-5.8-0.9-17.9-6.4-37.9-41.3-27-79.2 10.6-37.2 55.3-56.7 69.4-52.7 6.6 1.8 12.1 6.7 16.2 13.9 8.6 15.3 9.7 39.8 2.9 63.9-7.5 26.1-26.3 43.7-40.2 50.8-5.5 2.8-10.8 4.2-15.5 4.2z m32.3-125.3c-5.3 0-15.9 2.9-27.6 10.4-8.7 5.6-24.2 17.8-29.7 37-9.1 31.8 7.1 64.1 22 69.4 3.3 1.2 8.9 0.1 15-3 12.4-6.3 29.4-22.2 36.1-45.8 6.2-21.7 5.4-44.3-2.2-57.7-3-5.3-7-8.9-11.3-10.1-0.7-0.1-1.4-0.2-2.3-0.2z" fill="" p-id="5553"></path><path d="M463.1 338.9l-58.5-19.8-45.1-2.5-4.9 10-0.9 7.2 4.9 11.7s4.8 17.8 16.4 22.4l88.1 4.8c0 0.1 8.4-8.6 0-33.8z" fill="#FFFFFF" p-id="5554"></path><path d="M461.6 352.1c-2.1-10.6-8.6-18.3-14.7-17-6.3 1.3-9.5 11.6-7.1 22.9 2.4 11.1 9.3 18.3 15.3 16.3 5.7-1.9 8.6-11.8 6.5-22.2z" fill="" p-id="5555"></path><path d="M462.5 335.5c-79.7-40.9-112.9-20.8-112.9-20.8-9.6 6.7-5.6 13.6-1.8 13.7 3.9 0 10-4.7 10-4.7 23.8-10.9 104.2 16.2 104.2 16.2 9.5 0.7 0.5-4.4 0.5-4.4z" fill="" p-id="5556"></path><path d="M360 318.5s-10.3 11.4-10.3 16.5c0 0 5.9 4 15.2-15.1l-4.9-1.4z" fill="" p-id="5557"></path><path d="M355.9 329.1l-4.5 5.2c0.7 22.9 23.1 35.1 23.1 35.1-15.1-13.6-18.6-40.3-18.6-40.3z" fill="" p-id="5558"></path><path d="M360.4 364.7c33.9 14.4 105.6 9.1 105.6 9.1-14.8-2.6-105.6-9.1-105.6-9.1zM480.1 280.4c-6.2-11.3-12-0.4-12-0.4-13.2-4.6-66.2-18.2-99-7.3-32.8 10.9-40.4 35.7-40.4 35.7 23.2-46.9 120.5-16 128.1-14.6 7.6 1.5 16 1.1 16 1.1 9.1-2.5 7.3-14.5 7.3-14.5zM488.4 288.4s1.4 11.6-9.8 13.4c0 0-1.3 3 1.1 3.3 3.2 0.3 6.9-1 8-2.9 2.4-4.4 3.1-9.5 0.7-13.8z" fill="" p-id="5559"></path><path d="M669.7 322.2c-3.6-5.1-10.2-6.6-10.2-6.6-7.3-4.4-21.8-5.8-21.8-5.8l-21.8 5.8-23.3 9.5-18.9 12.4c-22.6 29.8-5.8 34.2-5.8 34.2l88.1-16c16.6-8.7 13.7-33.5 13.7-33.5z" fill="#FFFFFF" p-id="5560"></path><path d="M662.2 328.2c-3.4-12.1-12.6-20.2-20.5-17.9-7.9 2.2-11.6 13.9-8.2 26.1 3.4 12.2 12.6 20.2 20.5 17.9 7.9-2.3 11.6-14 8.2-26.1zM579 328.3c-17.7 13-18.8 36.9-18.8 36.9 7.5-18.9 26.9-34.9 43.1-43.8 9.6-5.3 20.5-7.7 20.5-7.7-16 1.7-28.4 2.5-44.8 14.6z" fill="" p-id="5561"></path><path d="M632.5 305.8c-31.4 5-65.7 34.5-65.7 34.5-3.7 5.6 2.7 2.2 2.7 2.2s20.2-10.5 37.8-18.6c12.5-5.7 24.4-8.6 24.4-8.6 15.4-5.3 40.4 7.5 40.4 7.5-3.4-4.6-15.1-20.8-39.6-17zM659.7 352.8c-47.8 3.2-98.3 18.2-98.3 18.2 0.5 0.9 2.2 1.3 3.8 1.5 26.7 3 95.4-16.4 95.4-16.4 5.8-4.2-0.9-3.3-0.9-3.3zM614 267.3c-21.5 8.1-42.3 13.3-58.6 11.3-8.2-1-15.1-6.5-14.2-16 0 0-4.6-1.9-4.7 2.2 0 0-5.4 32.3 20.4 33.1 16.9 0.5 33.5-10.4 60.4-20 0 0 35.7-16.7 50.9-10.6 0 0-18.2-13.7-54.2 0z" fill="" p-id="5562"></path><path d="M431.802371 353.422278a7.8 7.8 0 1 0 11.030673-11.031058 7.8 7.8 0 1 0-11.030673 11.031058Z" fill="#FFFFFF" p-id="5563"></path><path d="M634.4 328.8m-7.3 0a7.3 7.3 0 1 0 14.6 0 7.3 7.3 0 1 0-14.6 0Z" fill="#FFFFFF" p-id="5564"></path></svg>