<?xml version="1.0" standalone="no"?><!DOCTYPE svg PUBLIC "-//W3C//DTD SVG 1.1//EN" "http://www.w3.org/Graphics/SVG/1.1/DTD/svg11.dtd"><svg t="1727963316954" class="icon" viewBox="0 0 1173 1024" version="1.1" xmlns="http://www.w3.org/2000/svg" p-id="5855" xmlns:xlink="http://www.w3.org/1999/xlink" width="229.1015625" height="200"><path d="M684.059345 738.278532c-77.543777 102.319174-114.867752 113.25896-198.846697 0h1.608792-1.930551c83.335428-96.527523 115.511269-96.527523 198.846698 0h-1.608792 2.252308m270.598823-299.878838a383.536024 383.536024 0 0 0-89.770596-139.964908 396.084602 396.084602 0 0 0-74.326193-60.812339c-49.550795-35.393425-100.388624-68.8563-151.548211-101.997416a298.913563 298.913563 0 0 0-287.008501-73.039159 297.626529 297.626529 0 0 1 168.923165 67.247507 298.913563 298.913563 0 0 0-243.892875 25.418915 299.235321 299.235321 0 0 1 195.950872 14.800887c-29.923532 19.627263-59.525306 39.576284-88.483563 60.168822a397.371636 397.371636 0 0 0-153.157003 163.453272 404.772079 404.772079 0 0 0-20.592538 48.263762c-22.20133 141.5737 8.687477 266.094205 4.504618 277.677507a399.623945 399.623945 0 0 0 328.837094 251.293318q18.661988 1.93055 37.645734 1.930551a379.353165 379.353165 0 0 0 208.49945-61.777615 397.693394 397.693394 0 0 0 158.626896-193.055046c-4.182859-11.583303 20.27078-184.689327 6.435168-280.895091" fill="#FFD20F" p-id="5856"></path><path d="M585.601272 792.977462c-15.766162 0-37.645734-18.018471-66.282233-54.377171 32.175841-32.175841 50.837829-48.263761 66.282233-48.263762s35.715183 14.479128 66.282232 48.263762c-24.131881 28.958257-48.58552 54.377171-66.282232 54.377171z m0-153.80052c-40.54156 0-75.613226 32.175841-119.050612 81.404878a26.38419 26.38419 0 0 0 0 32.175841c47.942003 64.351682 82.691911 91.05763 119.694129 91.379388 42.150352 0 77.222018-34.749908 119.694128-91.05763a26.38419 26.38419 0 0 0 0-32.175841c-45.689694-50.51607-80.761361-81.726636-120.337645-81.726636z m263.198379-20.914297a57.272997 57.272997 0 1 1-57.272997-57.272997 57.272997 57.272997 0 0 1 56.307722 57.272997z m-418.285933 0a56.62948 56.62948 0 1 1-56.62948-56.62948 56.62948 56.62948 0 0 1 55.020688 56.62948z m690.171789 87.840046a48.263761 48.263761 0 1 1-96.527523 0v-218.47396a48.263761 48.263761 0 1 1 96.527523 0z m-172.462508 14.479129a397.693394 397.693394 0 0 1-158.626896 193.055045 379.353165 379.353165 0 0 1-208.499449 61.777615q-18.661988 0-37.645734-1.93055a399.623945 399.623945 0 0 1-328.837095-253.867386c4.504618-11.583303-26.705948-136.103807-4.504617-277.677507a404.772079 404.772079 0 0 1 21.557813-48.263762 397.371636 397.371636 0 0 1 153.478761-163.131513c29.280015-20.592538 58.881789-40.54156 88.483563-60.168823a299.235321 299.235321 0 0 0-194.985596-15.122645 298.913563 298.913563 0 0 1 242.605841-25.418915 297.626529 297.626529 0 0 0-168.923165-67.247507 298.913563 298.913563 0 0 1 286.364984 72.073884c51.159587 32.175841 101.997416 66.603991 151.548211 101.997415a396.084602 396.084602 0 0 1 74.326193 60.81234 383.536024 383.536024 0 0 1 89.770596 139.964908c13.835612 96.849281-10.618028 268.668272-6.435168 281.538609z m-801.17844-14.479129a48.263761 48.263761 0 1 1-96.527523 0v-218.47396a48.263761 48.263761 0 1 1 96.527523 0zM269.956272 207.698915h6.756926a51.481346 51.481346 0 0 0 13.192095-1.608792 246.466942 246.466942 0 0 1 49.872554-8.043961 447.244189 447.244189 0 0 0-155.409312 173.106025 455.609908 455.609908 0 0 0-18.983746 43.437385 99.423349 99.423349 0 0 0-26.38419-17.053196 470.089037 470.089037 0 0 1 130.955673-191.124495z m750.984128 196.594388a100.066865 100.066865 0 0 0-18.983746 15.122645 433.408578 433.408578 0 0 0-100.388624-155.73107 447.887706 447.887706 0 0 0-82.370153-67.569266c-46.976728-32.175841-96.527523-64.351682-138.677874-93.953456a469.44552 469.44552 0 0 1 340.742155 302.131147z m51.803104-14.800887h-2.252309a520.605107 520.605107 0 0 0-470.410795-350.716667 25.740673 25.740673 0 0 0-7.722202 0 350.716667 350.716667 0 0 0-253.867385-26.062431 51.481346 51.481346 0 0 0-32.175841 71.430367 348.142599 348.142599 0 0 0-54.69893 25.740673 51.481346 51.481346 0 0 0-21.879571 64.351682 521.570382 521.570382 0 0 0-140.286667 210.108241 25.740673 25.740673 0 0 0 0 5.791652A99.423349 99.423349 0 0 0 0.000966 487.628731v218.47396a99.10159 99.10159 0 0 0 177.932401 60.490581 452.392324 452.392324 0 0 0 134.816773 164.740306 438.878471 438.878471 0 0 0 225.230887 90.092355q21.236055 1.93055 42.47211 1.93055a431.478027 431.478027 0 0 0 236.170673-69.821575 450.461774 450.461774 0 0 0 170.853715-197.881422 99.10159 99.10159 0 0 0 184.689328-49.550795v-218.47396a99.423349 99.423349 0 0 0-99.101591-99.423349z" fill="" p-id="5857"></path></svg>