<?xml version="1.0" standalone="no"?><!DOCTYPE svg PUBLIC "-//W3C//DTD SVG 1.1//EN" "http://www.w3.org/Graphics/SVG/1.1/DTD/svg11.dtd"><svg t="1708747299739" class="icon" viewBox="0 0 1024 1024" version="1.1" xmlns="http://www.w3.org/2000/svg" p-id="6712" xmlns:xlink="http://www.w3.org/1999/xlink" width="200" height="200"><path d="M178.346667 647.68c-3.413333 0-6.656-1.024-9.557334-2.901333a16.725333 16.725333 0 0 1-7.509333-15.36 363.861333 363.861333 0 0 1 54.954667-167.424c3.072-4.949333 8.533333-8.021333 14.506666-8.021334h4.437334c99.669333 0 188.928 62.976 222.378666 156.842667 2.218667 6.485333 0.512 13.653333-4.437333 18.261333-4.949333 4.608-12.288 5.802667-18.602667 3.072-22.528-9.898667-48.810667-6.314667-68.437333 9.216-5.12 4.096-11.946667 4.949333-17.749333 2.218667-50.858667-23.381333-112.469333-22.357333-162.304 2.389333-2.389333 1.194667-5.12 1.706667-7.68 1.706667z m91.306666-55.296c29.013333 0 57.173333 5.461333 83.626667 16.213333 17.578667-11.434667 37.717333-17.066667 58.538667-16.213333-34.304-61.952-99.498667-102.4-171.52-104.106667a329.728 329.728 0 0 0-41.642667 115.541334c22.698667-7.509333 46.762667-11.434667 70.997333-11.434667zM737.792 401.749333c-3.754667 0-7.509333-1.365333-10.581333-3.754666a328.2944 328.2944 0 0 0-249.002667-68.096c-44.714667 6.314667-86.698667 21.162667-124.757333 44.202666-6.314667 3.754667-14.165333 3.242667-19.797334-1.536-28.16-23.722667-40.106667-59.562667-32.256-95.914666 7.338667-34.474667 33.962667-62.805333 67.754667-72.192 24.064-6.826667 48.981333-4.437333 70.144 5.802666 7.850667-37.546667 37.888-69.290667 76.117333-76.970666A97.450667 97.450667 0 0 1 596.992 153.6a97.792 97.792 0 0 1 35.84 74.069333c22.528-6.314667 46.421333-5.12 69.290667 3.584a107.178667 107.178667 0 0 1 60.245333 58.709334c14.336 34.474667 10.581333 73.557333-10.069333 104.448-2.730667 3.925333-6.826667 6.656-11.605334 7.338666h-2.901333z m-214.528-109.056a361.557333 361.557333 0 0 1 208.725333 66.218667c6.656-17.92 6.314667-37.546667-1.365333-56.149333a74.359467 74.359467 0 0 0-41.130667-39.936c-23.722667-9.216-48.469333-6.485333-69.461333 7.338666-6.144 4.096-14.336 3.584-19.968-1.024a17.032533 17.032533 0 0 1-5.290667-19.285333c2.56-6.656 3.754667-13.482667 3.754667-20.992 0-19.114667-8.533333-37.034667-23.381333-49.152-15.018667-12.288-33.962667-17.066667-53.418667-13.141333-29.866667 5.973333-52.053333 34.816-50.517333 65.706666 0.170667 2.730667 0.512 5.290667 1.024 7.850667a16.981333 16.981333 0 1 1-29.354667 14.677333c-15.872-17.749333-40.618667-24.576-64.682667-17.749333a62.737067 62.737067 0 0 0-43.690666 46.592c-4.266667 19.968 0.512 39.594667 12.8 54.442667 38.912-21.674667 81.408-35.84 126.293333-42.154667 16.554667-2.048 33.28-3.242667 49.664-3.242667z" fill="#D1D1D1" p-id="6713"></path><path d="M465.578667 902.997333c-7.168 0-13.824-0.170667-20.48-0.341333a58.453333 58.453333 0 0 1-51.029334-33.109333c-9.728-19.968-7.68-43.861333 5.461334-62.293334 19.285333-27.648 31.573333-58.88 35.669333-91.136 1.194667-9.216 1.706667-17.749333 1.706667-26.112 0-23.552-3.925333-46.250667-11.605334-67.754666-28.501333-80.213333-104.96-134.144-190.293333-134.144h-4.437333c-6.144 0-11.946667-3.413333-15.018667-8.874667-3.072-5.461333-2.730667-12.117333 0.512-17.408 30.037333-47.445333 71.338667-87.893333 119.125333-116.906667 42.154667-25.6 88.576-41.984 137.898667-48.810666 34.474667-4.608 68.778667-4.437333 100.693333 0.170666 63.488 8.874667 123.733333 34.816 174.250667 74.922667 87.381333 68.949333 137.557333 172.714667 137.557333 284.16v4.096c0 3.072-0.853333 6.144-2.56 8.874667-89.258667 147.114667-245.589333 234.666667-417.450666 234.666666zM262.314667 455.68c88.405333 10.24 164.693333 70.144 195.072 155.136a233.403733 233.403733 0 0 1 11.605333 109.568 236.544 236.544 0 0 1-41.301333 105.813333c-6.485333 9.045333-7.509333 19.285333-3.242667 28.16 4.096 8.533333 12.117333 13.482667 21.674667 13.994667 6.144 0.170667 12.458667 0.341333 18.602666 0.341333 158.72 0 302.933333-79.872 386.730667-214.186666-0.170667-100.693333-45.568-194.389333-124.586667-256.682667a326.570667 326.570667 0 0 0-158.037333-67.925333c-29.013333-4.266667-60.074667-4.437333-91.136-0.170667-44.714667 6.314667-86.698667 21.162667-124.757333 44.202667a344.866133 344.866133 0 0 0-90.624 81.749333z m606.549333 203.946667z" fill="#D1D1D1" p-id="6714"></path><path d="M178.346667 647.68c-3.413333 0-6.656-1.024-9.557334-2.901333a16.725333 16.725333 0 0 1-7.509333-15.36 363.861333 363.861333 0 0 1 54.954667-167.424c3.072-4.949333 8.533333-8.021333 14.506666-8.021334h4.437334c99.669333 0 188.928 62.976 222.378666 156.842667 2.218667 6.485333 0.512 13.653333-4.437333 18.261333-4.949333 4.608-12.288 5.802667-18.602667 3.072-22.528-9.898667-48.810667-6.314667-68.437333 9.216-5.12 4.096-11.946667 4.949333-17.749333 2.218667-50.858667-23.381333-112.469333-22.357333-162.304 2.389333-2.389333 1.194667-5.12 1.706667-7.68 1.706667z m91.306666-55.296c29.013333 0 57.173333 5.461333 83.626667 16.213333 17.578667-11.434667 37.717333-17.066667 58.538667-16.213333-34.304-61.952-99.498667-102.4-171.52-104.106667a329.728 329.728 0 0 0-41.642667 115.541334c22.698667-7.509333 46.762667-11.434667 70.997333-11.434667z" fill="#D1D1D1" p-id="6715"></path><path d="M407.893333 833.877333c-25.941333 0-50.688-9.898667-70.485333-28.330666-24.576-23.04-38.741333-56.661333-38.741333-92.501334 0-39.424 17.237333-76.288 46.250666-98.645333 29.013333-23.210667 69.290667-28.842667 103.253334-13.653333 4.266667 1.877333 7.509333 5.461333 9.045333 9.728a234.3936 234.3936 0 0 1 11.605333 109.738666 236.544 236.544 0 0 1-41.301333 105.813334c-1.706667 2.389333-3.754667 4.266667-6.314667 5.461333-2.048 1.024-4.266667 1.706667-6.485333 1.706667-2.048 0.682667-4.437333 0.682667-6.826667 0.682666z m0-207.36c-15.189333 0-29.696 5.12-41.813333 15.018667-20.992 16.042667-33.28 42.837333-33.28 71.68 0 26.282667 10.24 50.858667 27.989333 67.413333 12.629333 11.605333 27.989333 18.261333 44.032 19.114667 16.213333-25.429333 26.794667-54.101333 30.549334-83.456 1.194667-9.216 1.706667-17.749333 1.706666-26.112 0-20.821333-3.072-41.130667-9.216-60.416-6.485333-2.218667-13.141333-3.242667-19.968-3.242667z" fill="#D1D1D1" p-id="6716"></path><path d="M500.053333 471.04m-23.04 0a23.04 23.04 0 1 0 46.08 0 23.04 23.04 0 1 0-46.08 0Z" fill="#D1D1D1" p-id="6717"></path></svg>